<svg 
 xmlns="http://www.w3.org/2000/svg"
 xmlns:xlink="http://www.w3.org/1999/xlink"
 width="1423px" height="751px">
<path fill-rule="evenodd"  fill="rgb(0, 0, 0)"
 d="M537.999,0.0 C594.804,-1.265 579.998,64.793 580.0,117.999 C580.0,137.532 584.470,168.380 577.999,183.999 C573.697,194.385 563.220,202.570 551.0,204.999 C532.725,208.633 518.390,193.978 513.999,182.999 C509.629,172.73 508.736,38.660 512.999,25.0 C517.658,10.72 528.810,9.574 537.999,0.0 ZM1247.999,112.0 C1281.330,112.0 1314.670,112.0 1347.999,112.0 C1347.999,236.987 1347.999,362.12 1347.999,487.0 C1372.997,487.0 1398.2,487.0 1423.0,487.0 C1381.337,569.991 1339.662,653.8 1298.0,735.999 C1297.666,735.999 1297.333,735.999 1297.0,735.999 C1255.670,653.8 1214.329,569.991 1173.0,487.0 C1197.997,487.0 1223.2,487.0 1247.999,487.0 C1247.999,362.12 1247.999,236.987 1247.999,112.0 ZM181.0,149.0 C203.422,149.771 210.552,162.551 222.0,174.0 C251.997,203.997 282.2,234.3 312.0,263.999 C321.261,279.446 313.537,301.288 302.999,309.0 C291.765,317.221 272.232,317.240 260.999,309.0 C234.2,281.669 206.997,254.330 179.999,226.999 C169.612,216.614 153.732,206.520 149.999,190.0 C144.0,163.442 165.758,155.928 181.0,149.0 ZM905.0,149.0 C928.572,149.508 951.559,169.707 940.0,197.0 C933.996,211.174 917.112,221.268 906.999,231.999 C881.669,257.664 856.330,283.335 831.0,309.0 C820.546,316.662 802.298,317.515 791.0,310.0 C776.985,300.677 771.173,276.28 783.0,260.0 C794.998,248.334 807.1,236.665 819.0,225.0 C845.834,198.172 868.542,166.90 905.0,149.0 ZM524.999,239.0 C690.437,236.495 784.999,318.898 832.0,434.999 C861.286,507.342 856.639,617.543 821.0,680.0 C821.333,680.666 821.666,681.333 821.999,681.999 C879.994,681.999 938.5,681.999 995.999,681.999 C1017.814,681.998 1053.336,676.567 1071.0,683.999 C1087.342,690.876 1098.863,718.268 1084.999,736.999 C1073.875,752.31 1050.424,750.2 1024.0,750.0 C975.671,750.0 927.328,750.0 879.0,750.0 C673.353,750.0 467.646,750.0 261.999,750.0 C201.6,750.0 139.993,750.0 79.0,750.0 C48.892,750.3 19.674,753.359 6.999,735.999 C-6.904,716.956 5.374,690.780 21.999,683.999 C40.90,676.621 75.776,681.998 98.0,681.999 C155.660,681.999 213.339,681.999 271.0,681.999 C266.333,670.667 261.666,659.332 256.999,648.0 C252.0,628.2 246.999,607.997 241.999,587.999 C212.135,434.7 331.56,299.128 427.0,262.0 C447.436,254.91 469.155,248.53 492.0,242.999 C502.998,241.666 514.1,240.333 524.999,239.0 ZM528.999,306.999 C519.0,308.333 508.999,309.666 499.0,311.0 C481.335,316.666 463.664,322.333 445.999,327.999 C364.645,367.302 275.350,476.368 315.999,608.999 C324.268,635.978 336.484,661.57 350.999,681.999 C481.320,681.999 611.679,681.999 742.0,681.999 C755.864,656.278 770.722,631.248 779.0,599.0 C789.592,557.733 784.198,504.474 772.0,470.0 C737.271,371.856 662.609,306.369 528.999,306.999 ZM32.999,510.999 C68.329,510.999 103.670,510.999 139.0,510.999 C153.665,511.666 168.334,512.333 182.999,513.0 C194.926,517.678 210.397,532.869 205.0,553.999 C202.618,563.322 194.6,573.144 185.999,576.999 C169.390,584.997 29.901,582.938 16.999,574.999 C-1.63,563.885 -4.379,531.500 14.0,517.999 C20.332,515.666 26.667,513.333 32.999,510.999 ZM918.999,510.999 C954.329,510.999 989.670,510.999 1025.0,510.999 C1039.665,511.666 1054.334,512.333 1068.999,513.0 C1080.985,517.670 1096.445,532.695 1090.999,553.999 C1088.616,563.323 1080.7,573.144 1072.0,576.999 C1055.390,584.997 915.901,582.938 903.0,574.999 C885.51,563.955 881.719,531.429 899.999,517.999 C906.332,515.666 912.667,513.333 918.999,510.999 Z"/>
</svg>